<svg width="1066" height="280" viewBox="0 0 1066 280" fill="none" xmlns="http://www.w3.org/2000/svg">
<path d="M1014.41 170H1065.41V221H1014.41V170Z" fill="#FF3C3C"/>
<path d="M909.524 221.378C892.976 221.378 878.665 217.862 866.591 210.831C854.588 203.729 845.32 193.857 838.786 181.215C832.251 168.501 828.984 153.764 828.984 137.003C828.984 120.099 832.251 105.327 838.786 92.6847C845.32 79.9716 854.588 70.0994 866.591 63.0682C878.665 55.9659 892.976 52.4148 909.524 52.4148C926.072 52.4148 940.348 55.9659 952.351 63.0682C964.425 70.0994 973.729 79.9716 980.263 92.6847C986.797 105.327 990.064 120.099 990.064 137.003C990.064 153.764 986.797 168.501 980.263 181.215C973.729 193.857 964.425 203.729 952.351 210.831C940.348 217.862 926.072 221.378 909.524 221.378ZM909.737 186.222C917.266 186.222 923.551 184.091 928.594 179.83C933.636 175.497 937.436 169.602 939.993 162.145C942.621 154.688 943.935 146.2 943.935 136.683C943.935 127.166 942.621 118.679 939.993 111.222C937.436 103.764 933.636 97.8693 928.594 93.5369C923.551 89.2046 917.266 87.0384 909.737 87.0384C902.138 87.0384 895.746 89.2046 890.561 93.5369C885.447 97.8693 881.577 103.764 878.949 111.222C876.392 118.679 875.114 127.166 875.114 136.683C875.114 146.2 876.392 154.688 878.949 162.145C881.577 169.602 885.447 175.497 890.561 179.83C895.746 184.091 902.138 186.222 909.737 186.222Z" fill="white"/>
<path d="M726.453 218.182V54.5455H770.451V83.0966H772.156C775.139 72.9403 780.146 65.2699 787.177 60.0853C794.208 54.8296 802.305 52.2017 811.467 52.2017C813.74 52.2017 816.19 52.3438 818.818 52.6279C821.446 52.912 823.754 53.3026 825.742 53.7997V94.0696C823.612 93.4304 820.664 92.8622 816.9 92.3651C813.136 91.8679 809.691 91.6193 806.566 91.6193C799.89 91.6193 793.924 93.0753 788.669 95.9872C783.484 98.8281 779.365 102.805 776.311 107.919C773.328 113.033 771.836 118.928 771.836 125.604V218.182H726.453Z" fill="white"/>
<path d="M602.028 220.845C589.599 220.845 578.342 217.649 568.257 211.257C558.243 204.794 550.288 195.313 544.393 182.812C538.569 170.241 535.657 154.83 535.657 136.577C535.657 117.827 538.676 102.237 544.713 89.8082C550.75 77.3082 558.775 67.9688 568.789 61.7898C578.875 55.5398 589.919 52.4148 601.921 52.4148C611.083 52.4148 618.718 53.9773 624.826 57.1023C631.005 60.1563 635.977 63.9915 639.741 68.608C643.576 73.1534 646.488 77.6278 648.477 82.0312H649.862V0H695.139V218.182H650.394V191.974H648.477C646.346 196.52 643.328 201.03 639.421 205.504C635.586 209.908 630.579 213.565 624.4 216.477C618.292 219.389 610.835 220.845 602.028 220.845ZM616.41 184.73C623.725 184.73 629.904 182.741 634.947 178.764C640.061 174.716 643.967 169.07 646.666 161.825C649.436 154.581 650.821 146.094 650.821 136.364C650.821 126.634 649.471 118.182 646.772 111.009C644.073 103.835 640.167 98.2955 635.054 94.3892C629.94 90.483 623.725 88.5298 616.41 88.5298C608.953 88.5298 602.667 90.554 597.554 94.6023C592.44 98.6506 588.569 104.261 585.941 111.435C583.314 118.608 582 126.918 582 136.364C582 145.881 583.314 154.297 585.941 161.612C588.64 168.857 592.511 174.538 597.554 178.658C602.667 182.706 608.953 184.73 616.41 184.73Z" fill="white"/>
<path d="M184.589 279.545V54.5455H229.334V82.0313H231.358C233.346 77.6279 236.223 73.1534 239.987 68.608C243.822 63.9915 248.794 60.1563 254.902 57.1023C261.081 53.9773 268.751 52.4148 277.913 52.4148C289.845 52.4148 300.854 55.5398 310.939 61.7898C321.024 67.9688 329.085 77.3083 335.122 89.8083C341.159 102.237 344.177 117.827 344.177 136.577C344.177 154.83 341.23 170.241 335.335 182.813C329.511 195.313 321.557 204.794 311.471 211.257C301.457 217.649 290.236 220.845 277.807 220.845C269 220.845 261.507 219.389 255.328 216.477C249.22 213.565 244.213 209.908 240.307 205.504C236.4 201.03 233.417 196.52 231.358 191.974H229.973V279.545H184.589ZM229.014 136.364C229.014 146.094 230.364 154.581 233.062 161.825C235.761 169.07 239.667 174.716 244.781 178.764C249.895 182.741 256.109 184.73 263.425 184.73C270.811 184.73 277.061 182.706 282.175 178.658C287.288 174.538 291.159 168.857 293.787 161.612C296.486 154.297 297.835 145.881 297.835 136.364C297.835 126.918 296.521 118.608 293.893 111.435C291.266 104.261 287.395 98.6506 282.281 94.6023C277.167 90.554 270.882 88.5298 263.425 88.5298C256.038 88.5298 249.788 90.483 244.675 94.3892C239.632 98.2955 235.761 103.835 233.062 111.009C230.364 118.182 229.014 126.634 229.014 136.364Z" fill="white"/>
<path d="M80.5398 221.378C63.9915 221.378 49.6804 217.862 37.6065 210.831C25.6037 203.729 16.3352 193.857 9.80114 181.215C3.26705 168.501 0 153.764 0 137.003C0 120.099 3.26705 105.327 9.80114 92.6847C16.3352 79.9716 25.6037 70.0994 37.6065 63.0682C49.6804 55.9659 63.9915 52.4148 80.5398 52.4148C97.0881 52.4148 111.364 55.9659 123.366 63.0682C135.44 70.0994 144.744 79.9716 151.278 92.6847C157.813 105.327 161.08 120.099 161.08 137.003C161.08 153.764 157.813 168.501 151.278 181.215C144.744 193.857 135.44 203.729 123.366 210.831C111.364 217.862 97.0881 221.378 80.5398 221.378ZM80.7528 186.222C88.2813 186.222 94.5668 184.091 99.6094 179.83C104.652 175.497 108.452 169.602 111.009 162.145C113.636 154.688 114.95 146.2 114.95 136.683C114.95 127.166 113.636 118.679 111.009 111.222C108.452 103.764 104.652 97.8693 99.6094 93.5369C94.5668 89.2046 88.2813 87.0384 80.7528 87.0384C73.1534 87.0384 66.7614 89.2046 61.5767 93.5369C56.4631 97.8693 52.5923 103.764 49.9645 111.222C47.4077 118.679 46.1293 127.166 46.1293 136.683C46.1293 146.2 47.4077 154.688 49.9645 162.145C52.5923 169.602 56.4631 175.497 61.5767 179.83C66.7614 184.091 73.1534 186.222 80.7528 186.222Z" fill="white"/>
<path d="M399.541 211.151C411.686 217.969 426.175 221.378 443.007 221.378C456.501 221.378 468.398 219.318 478.696 215.199C489.065 211.009 497.517 205.185 504.051 197.727C510.656 190.199 515.024 181.392 517.155 171.307L475.18 168.537C473.618 172.656 471.345 176.136 468.362 178.977C465.379 181.818 461.793 183.949 457.602 185.369C453.412 186.79 448.795 187.5 443.753 187.5C436.153 187.5 429.584 185.902 424.044 182.706C418.504 179.51 414.207 174.965 411.153 169.07C408.17 163.175 406.679 156.179 406.679 148.082V147.976H518.114V135.511C518.114 121.591 516.161 109.446 512.254 99.0767C508.348 88.6364 502.879 79.9716 495.848 73.0824C488.888 66.1932 480.72 61.0441 471.345 57.635C462.041 54.1549 451.992 52.4148 441.196 52.4148C425.145 52.4148 411.153 55.9659 399.222 63.0682C387.361 70.1705 378.163 80.0781 371.629 92.7912C365.095 105.504 361.828 120.277 361.828 137.109C361.828 154.368 365.095 169.318 371.629 181.96C378.163 194.531 387.467 204.261 399.541 211.151ZM406.722 119.851C406.995 113.975 408.508 108.613 411.26 103.764C414.243 98.4375 418.362 94.2117 423.618 91.0867C428.945 87.8906 435.053 86.2926 441.942 86.2926C448.547 86.2926 454.335 87.7486 459.307 90.6605C464.349 93.5014 468.291 97.4432 471.132 102.486C473.973 107.528 475.393 113.317 475.393 119.851H406.722Z" fill="white"/>
</svg>
